<?xml version="1.0" encoding="utf-8"?>
<!-- Generator: Adobe Illustrator 16.0.0, SVG Export Plug-In . SVG Version: 6.00 Build 0)  -->
<!DOCTYPE svg PUBLIC "-//W3C//DTD SVG 1.1//EN" "http://www.w3.org/Graphics/SVG/1.1/DTD/svg11.dtd">
<svg version="1.1" id="whale" xmlns="http://www.w3.org/2000/svg" xmlns:xlink="http://www.w3.org/1999/xlink" x="0px" y="0px"
	 width="2000px" height="1000px" viewBox="0 0 2000 1000" enable-background="new 0 0 2000 1000" xml:space="preserve">
<path fill="#BFC6FF" d="M216.527,1113.153c0,0-160.931-392.34,146-490c176-56,352-46,422,30c69.526,75.485,100,152,246,126
	c146-26,270.482-44.228,354-42c150,4,108,74,264,46c100-54,2-160,114-208c68-28,48.826-134.075,106-182c16,116-2,182-86,296
	c82-8,82-66,198-64c-76,180-176,122-184,206c-24,108-111.025,92.098-170,122c-142,72-62,172-160,178s-340-4-346,4"/>
<g>
	<g>
		<path fill="none" d="M1324.5,988.5"/>
		<path d="M1324.405,989.175c1.08,0,1.503-1.35,0.189-1.35C1323.515,987.825,1323.092,989.175,1324.405,989.175L1324.405,989.175z"
			/>
	</g>
</g>
<ellipse transform="matrix(0.7711 0.6367 -0.6367 0.7711 514.941 -42.6377)" fill="#FFFFFF" cx="316.77" cy="694.848" rx="22.048" ry="55.526"/>
<ellipse id="rightEye" transform="matrix(0.7698 0.6383 -0.6383 0.7698 509.6299 -40.5736)" fill="#474C47" cx="311.062" cy="686.215" rx="10.806" ry="28.982"/>
<ellipse transform="matrix(0.7711 0.6367 -0.6367 0.7711 579.5024 -73.8602)" fill="#FFFFFF" cx="392.476" cy="769.041" rx="27" ry="68.001"/>
<ellipse id="leftEye" transform="matrix(0.7698 0.6383 -0.6383 0.7698 575.257 -72.6948)" fill="#474C47" cx="388.401" cy="761.101" rx="15.005" ry="40.245"/>
<path fill="#FF5F87" d="M-1189.587,1759.354c0,0,206,32.479,388-62.793c-98,123.422-238,205.702-238,205.702
	c-120,10.827-136-4.33-136-4.33S-1193.587,1880.611-1189.587,1759.354z"/>
<path fill="#FF5F87" d="M176.163,848.488c0,0,85,64,197,24s189.742-70.95,228.308-22.734c33.651,42.071,35.33,70.777,29.851,100
	c-8.955,47.761-52.158,60.734-80.158,64.734s-224,76-224,76l-152-58C175.163,1032.488,162.799,941.638,176.163,848.488z"/>
<rect x="-101.5" y="1000.027" fill="#FFFFFF" width="2196" height="290"/>
<path fill="#FFFFFF" d="M190.336,857.369c0,0-19.239,69.914,7.104,80.709c26.343,10.794,53.741,21.588,56.901-6.167
	c3.162-27.756-1.053-50.886-1.053-50.886S215.653,872.273,190.336,857.369z"/>
<path fill="#FFFFFF" d="M288.626,885.071c0,0-23.998,38.997,9,47.997s70.496,19.499,79.496,0s1.5-61.497,1.5-61.497
	S323.963,889.117,288.626,885.071z"/>
<path fill="#FFFFFF" d="M404.96,861.089c0,0-23.338,49.479,8.16,59.979s65.997,10.499,79.496-17.999s2.268-70.423,2.268-70.423
	S464.957,836.591,404.96,861.089z"/>
<path fill="#FFFFFF" d="M182.116,1027.568c0,0-9.268-22.436,34.498-32.999c43.498-10.499,59.617-26.333,79.496,1.5
	c7.5,10.5,14.999,23.999,4.5,47.998C293.888,1059.431,182.116,1027.568,182.116,1027.568z"/>
<path fill="#FFFFFF" d="M428.141,1030.568c0,0-9.268-22.436,34.498-32.999c43.498-10.499,59.617-26.333,79.496,1.5
	c7.5,10.5,14.999,23.999,4.5,47.998C539.913,1062.431,428.141,1030.568,428.141,1030.568z"/>
<path fill="#FFFFFF" d="M347.102,1047.067c0,0-25.499-44.997,0-52.497s53.998-13.5,62.997-7.5s20.999,30,6,53.998
	S347.102,1047.067,347.102,1047.067z"/>
<path fill="#FFFFFF" d="M535.968,825.464c-8.94,1.029-17.999,44.998,1.5,52.497s63.142-29.226,63.142-29.226l-6.608-6.607
	C594.002,842.128,575.903,820.867,535.968,825.464z"/>
<path fill="#404040" d="M236.571,809.729c0,0,53.648-30.599,23.049,21.062C282.271,802.18,293.2,766.811,236.571,809.729z"/>
<path fill="#6AFFFF" d="M-220.885,1615.879c0,0,59.512,41.709,183.549,11.487c115.145-28.055,271.148-42.792,320.402-36.821
	s116.912,22.896,145.27,49.762c-77.612-44.776-261.179-33.649-383.582,22.88c-83.988,38.788-146.27,67.165-220.896,44.776
	c-61.072-18.322-103.559-60.351-125.373-85.074c-44.776-50.746-64.179-80.598-64.179-80.598l68.657-7.462
	C-297.038,1534.829-273.53,1578.748-220.885,1615.879z"/>
<path id="HatGray" fill="#D9DEE3" d="M291.249,582.626c0,0,627.063,190.488,633.063,115.95
	C930.312,624.036,9.221,441.829,291.249,582.626z"/>
<path id="Hat" fill="#FF516D" d="M399.684,541.894c0,0,138.215-317.916,446.816-269.394
	c305.979,48.11,333.84,171.269,251.076,135.259c-82.764-36.009-220.424-50.904-268.984,37.523
	c-50.092,91.218-27.492,129.432-5.388,187.123C845.308,690.097,421.38,623.771,399.684,541.894z"/>
</svg>
